<svg width="185" height="35" viewBox="0 0 185 35" fill="none" xmlns="http://www.w3.org/2000/svg">
<g id="Logo">
<path id="Vector" d="M5.68011 34.4324C8.81714 34.4324 11.3602 31.9004 11.3602 28.777C11.3602 25.6536 8.81714 23.1216 5.68011 23.1216C2.54307 23.1216 0 25.6536 0 28.777C0 31.9004 2.54307 34.4324 5.68011 34.4324Z" fill="#21D9EA"/>
<path id="Vector_2" d="M11.3602 11.8108C17.6334 11.8108 22.7204 16.8757 22.7204 23.1216C22.7204 29.3675 17.6334 34.4324 11.3602 34.4324" fill="#0F3D41"/>
<path id="Vector_3" d="M22.7203 0.5C32.4685 0.5 40.3747 8.0941 40.3747 17.4662C40.3747 26.8383 32.4726 34.4324 22.7203 34.4324" fill="#0F3D41"/>
<path id="Vector_4" d="M70.0907 34.4324L63.2574 22.2187H58.7162V34.4324H51.7346V0.5H65.5974C67.7795 0.5 69.7462 0.970492 71.5024 1.90672C73.2585 2.84295 74.6415 4.14512 75.6511 5.80848C76.6608 7.47183 77.1633 9.3538 77.1633 11.4544C77.1633 13.555 76.5268 15.5652 75.2588 17.2951C73.9907 19.025 72.2632 20.3082 70.0859 21.1494L78.1394 34.4324H70.0859H70.0907ZM58.7162 7.09164V15.9122H65.4012C66.7698 15.9122 67.9087 15.4987 68.8178 14.6765C69.727 13.8544 70.1864 12.7946 70.1864 11.5019C70.1864 10.2092 69.7318 9.14945 68.8178 8.32727C67.9087 7.5051 66.7698 7.09164 65.4012 7.09164H58.7162Z" fill="#0F3D41"/>
<path id="Vector_5" d="M102.314 24.2885H85.0469C85.3929 25.718 86.0756 26.837 87.0952 27.6409C88.1147 28.4493 89.3465 28.8512 90.7904 28.8512C92.5481 28.8512 93.9736 28.262 95.0716 27.0791H101.802C101.332 28.23 100.584 29.3764 99.5649 30.5274C98.5454 31.6783 97.2813 32.6238 95.7774 33.3682C94.2735 34.1127 92.6404 34.4872 90.8827 34.4872C88.6545 34.4872 86.6015 33.93 84.7193 32.811C82.8371 31.6921 81.347 30.1803 80.249 28.2711C79.1511 26.362 78.6021 24.2748 78.6021 22.0048C78.6021 19.7349 79.1603 17.7344 80.2721 15.807C81.3839 13.8796 82.8832 12.3541 84.7654 11.2169C86.6477 10.0842 88.6545 9.51782 90.7904 9.51782C92.9264 9.51782 94.9378 10.0476 96.7416 11.1027C98.5454 12.1577 99.9709 13.6101 101.023 15.4599C102.075 17.3096 102.6 19.3649 102.6 21.6303C102.6 22.7813 102.504 23.6627 102.319 24.2839L102.314 24.2885ZM87.1644 16.3916C86.131 17.2137 85.4252 18.3418 85.0469 19.7714H96.4325C96.0542 18.3738 95.3576 17.2548 94.338 16.419C93.3185 15.5786 92.1329 15.163 90.7858 15.163C89.4387 15.163 88.1977 15.5741 87.1644 16.3962V16.3916Z" fill="#0F3D41"/>
<path id="Vector_6" d="M122.228 12.2856C124.018 14.1354 124.908 16.5971 124.908 19.6709L125.116 34.4322H120.318L119.077 31.5505H118.842C116.96 33.5053 114.685 34.4872 112.019 34.4872C110.515 34.4872 109.14 34.1767 107.904 33.5555C106.663 32.9344 105.694 32.0803 104.988 30.9933C104.282 29.9062 103.932 28.7096 103.932 27.4079C103.932 25.7957 104.416 24.3889 105.39 23.1923C106.363 21.9957 107.719 21.0822 109.458 20.4428C111.198 19.8079 113.2 19.4882 115.46 19.4882H118.519V19.0224C118.519 17.812 118.191 16.862 117.532 16.1815C116.872 15.4964 115.977 15.1584 114.851 15.1584C113.878 15.1584 113.103 15.4142 112.522 15.9257C111.94 16.4373 111.59 16.9899 111.465 17.5791H105.067C105.191 16.1815 105.639 14.8707 106.409 13.6421C107.179 12.4135 108.282 11.4224 109.726 10.6596C111.17 9.89691 112.895 9.51782 114.902 9.51782C118.007 9.51782 120.457 10.4404 122.242 12.2902L122.228 12.2856ZM117.121 28.0062C118.044 27.1385 118.51 26.1108 118.51 24.9325V23.7221H115.262C113.537 23.7221 112.282 23.9962 111.498 24.5351C110.713 25.0786 110.321 25.8322 110.321 26.7959C110.321 27.5404 110.598 28.1478 111.147 28.6137C111.696 29.0796 112.489 29.3125 113.523 29.3125C114.999 29.3125 116.198 28.8786 117.121 28.0062Z" fill="#0F3D41"/>
<path id="Vector_7" d="M135.305 34.4323H128.907L128.907 1.72266H135.305L135.305 34.4323Z" fill="#0F3D41"/>
<path id="Vector_8" d="M140.801 6.55624C140.109 5.87114 139.768 5.03533 139.768 4.03966C139.768 3.04399 140.114 2.20817 140.801 1.52307C141.493 0.842547 142.337 0.5 143.343 0.5C144.349 0.5 145.193 0.842547 145.885 1.52307C146.577 2.20817 146.918 3.04399 146.918 4.03966C146.918 5.03533 146.572 5.87114 145.885 6.55624C145.193 7.24133 144.349 7.57931 143.343 7.57931C142.337 7.57931 141.493 7.23676 140.801 6.55624ZM146.54 34.4324H140.142V10.612H146.54V34.3711V34.4324Z" fill="#0F3D41"/>
<path id="Vector_9" d="M154.437 33.4413C152.947 32.7425 151.794 31.7788 150.977 30.5548C150.161 29.3262 149.722 27.956 149.658 26.4305H155.918C155.978 27.3303 156.347 28.0519 157.025 28.5954C157.699 29.1389 158.557 29.413 159.59 29.413C160.623 29.413 161.371 29.2029 161.92 28.7827C162.469 28.3625 162.741 27.8418 162.741 27.2207C162.741 26.4442 162.363 25.8413 161.611 25.4029C160.859 24.969 159.682 24.5031 158.082 24.0053C156.448 23.5075 155.111 23.0096 154.059 22.5164C153.007 22.0185 152.107 21.2969 151.351 20.3515C150.599 19.406 150.22 18.1866 150.22 16.693C150.22 15.3274 150.58 14.0988 151.305 13.0118C152.024 11.9248 153.076 11.0707 154.455 10.4496C155.835 9.8284 157.482 9.51782 159.396 9.51782C161.311 9.51782 162.824 9.86037 164.222 10.5409C165.615 11.226 166.708 12.1623 167.493 13.3589C168.277 14.5556 168.734 15.8846 168.858 17.3416H162.552C162.33 15.5101 161.283 14.5921 159.401 14.5921C158.492 14.5921 157.8 14.7702 157.33 15.1265C156.859 15.4827 156.624 15.944 156.624 16.5012C156.624 17.1863 156.979 17.7207 157.68 18.1089C158.386 18.4971 159.521 18.9219 161.094 19.3878C162.755 19.8856 164.12 20.3743 165.186 20.8539C166.252 21.3334 167.179 22.0642 167.963 23.0416C168.747 24.019 169.14 25.2841 169.14 26.837C169.14 29.1024 168.3 30.943 166.621 32.3589C164.942 33.7747 162.598 34.4781 159.585 34.4781C157.639 34.4781 155.923 34.1264 154.432 33.4276L154.437 33.4413Z" fill="#0F3D41"/>
<path id="Vector_10" d="M175.921 32.166C174.417 30.6131 173.661 28.503 173.661 25.8312V15.7694H169.942V10.5992H171.589C172.498 10.5992 173.204 10.3571 173.707 9.87758C174.21 9.39801 174.459 8.70378 174.459 7.80403V4.16846H180.059V10.1333H185V15.7694H180.059V25.178C180.059 26.297 180.35 27.1328 180.931 27.6946C181.512 28.2518 182.32 28.535 183.353 28.535C184.013 28.535 184.562 28.4254 185 28.2107V33.9883C184.027 34.3309 182.947 34.4999 181.752 34.4999C179.367 34.4999 177.425 33.7234 175.916 32.1706L175.921 32.166Z" fill="#0F3D41"/>
</g>
</svg>
